<?xml version="1.0" encoding="utf-8"?>
<!-- Generator: Adobe Illustrator 19.0.0, SVG Export Plug-In . SVG Version: 6.00 Build 0)  -->
<svg version="1.1" id="Layer_1" xmlns="http://www.w3.org/2000/svg" xmlns:xlink="http://www.w3.org/1999/xlink" x="0px" y="0px"
	 viewBox="0 0 168 168" style="enable-background:new 0 0 168 168;" xml:space="preserve">
<style type="text/css">
	.st0{fill:#F48677;}
	.st1{fill:none;}
	.st2{fill:#FFD997;}
	.st3{fill:#656868;}
</style>
<g id="XMLID_1_">
	<circle id="circle-4_1_" class="st0" cx="84" cy="84" r="84"/>
	<path id="XMLID_6_" class="st1" d="M0,84c0,9.8,1.7,19.2,4.8,28h158.4c3.1-8.8,4.8-18.2,4.8-28s-1.7-19.2-4.8-28H4.8
		C1.7,64.8,0,74.2,0,84z"/>
	<path id="XMLID_7_" class="st2" d="M84,168c36.6,0,67.7-23.4,79.2-56H4.8C16.3,144.6,47.4,168,84,168z"/>
	<path id="XMLID_8_" class="st3" d="M84,0C47.4,0,16.3,23.4,4.8,56h158.4C151.7,23.4,120.6,0,84,0z"/>
</g>
</svg>
