<?xml version="1.0" encoding="utf-8"?>
<!-- Generator: Adobe Illustrator 19.0.0, SVG Export Plug-In . SVG Version: 6.00 Build 0)  -->
<svg version="1.1" id="Layer_1" xmlns="http://www.w3.org/2000/svg" xmlns:xlink="http://www.w3.org/1999/xlink" x="0px" y="0px"
	 viewBox="0 0 168 168" style="enable-background:new 0 0 168 168;" xml:space="preserve">
<style type="text/css">
	.st0{fill:#FFD997;}
	.st1{fill:#F48677;}
	.st2{fill:none;}
</style>
<g id="XMLID_14_">
	<path id="XMLID_15_" class="st0" d="M0,84c0,11.3,2.3,22.1,6.3,32h155.3c4.1-9.9,6.3-20.7,6.3-32s-2.3-22.1-6.3-32H6.3
		C2.3,61.9,0,72.7,0,84z"/>
	<path id="XMLID_24_" class="st1" d="M68,64v24c0,8.8-7.2,16-16,16s-16-7.2-16-16V64H68z"/>
	<path id="XMLID_18_" class="st1" d="M84,0C48.9,0,18.9,21.5,6.3,52h155.3C149.1,21.5,119.1,0,84,0z"/>
	<path id="XMLID_21_" class="st1" d="M84,168c35.1,0,65.1-21.5,77.7-52H6.3C18.9,146.5,48.9,168,84,168z"/>
	<circle id="circle-7" class="st2" cx="84" cy="84" r="84"/>
</g>
</svg>
