<?xml version="1.0" standalone="no"?>
<!DOCTYPE svg PUBLIC "-//W3C//DTD SVG 1.1//EN" "http://www.w3.org/Graphics/SVG/1.1/DTD/svg11.dtd" >
<svg xmlns="http://www.w3.org/2000/svg">
<metadata>Generated by IcoMoon</metadata>
<defs>
<font id="woonder" horiz-adv-x="1024">
<font-face units-per-em="1024" ascent="960" descent="-64" />
<missing-glyph horiz-adv-x="1024" />
<glyph unicode="&#x20;" horiz-adv-x="512" d="" />
<glyph unicode="&#xe900;" glyph-name="dropdown-arrow-down" horiz-adv-x="1463" d="M1452.617 923.136c6.303-10.455 10.031-23.078 10.031-36.571s-3.729-26.117-10.212-36.895l-655.618-876.367c-13.62-22.542-37.991-37.38-65.829-37.38s-52.209 14.839-65.636 37.038l-655.991 877.033c-6.288 10.458-10.008 23.080-10.008 36.571s3.719 26.113 10.189 36.897c13.396 21.917 37.535 36.539 65.090 36.539 0.145 0 0.289 0 0.434-0.001h1311.429c0.122 0.001 0.267 0.001 0.411 0.001 27.554 0 51.694-14.622 65.081-36.531z" />
<glyph unicode="&#xe902;" horiz-adv-x="884" d="M27.927 699.020h181.527c30.121 0.049 54.571 24.255 55.016 54.277v179.242c0 0.010 0 0.022 0 0.034 0 7.626-3.135 14.52-8.187 19.463-5.041 4.955-11.952 8.011-19.578 8.011-0.073 0-0.147 0-0.22-0.001-7.611-0.003-14.5-3.138-19.44-8.187l-208.854-205.969c-4.977-4.964-8.056-11.828-8.056-19.412 0-15.141 12.274-27.415 27.415-27.415 0.132 0 0.264 0.001 0.396 0.003z" />
<glyph unicode="&#xe903;" horiz-adv-x="884" d="M818.269 917.271h-472.25v-21.551c0.237-2.040 0.372-4.403 0.372-6.798 0-0.032 0-0.064 0-0.096v-178.59c-0.395-50.804-41.67-91.836-92.53-91.836-0.197 0-0.394 0.001-0.591 0.002h-180.938c-1.862 0-3.863 0-5.772 0.233h-22.993v-617.425c0.289-36.051 29.582-65.165 65.674-65.165 0.148 0 0.296 0 0.444 0.001h708.585c0.125-0.001 0.273-0.001 0.421-0.001 36.092 0 65.384 29.114 65.673 65.138v850.878c-0.263 36.072-29.566 65.212-65.674 65.212-0.148 0-0.296 0-0.443-0.001zM760.646 179.759c-0.158-14.506-11.954-26.205-26.483-26.205-0.033 0-0.066 0-0.1 0h-540.434c-0.028 0-0.061 0-0.095 0-14.529 0-26.325 11.699-26.483 26.19v28.268c0.158 14.506 11.954 26.205 26.483 26.205 0.033 0 0.066 0 0.1 0h540.481c0.028 0 0.061 0 0.095 0 14.529 0 26.325-11.699 26.483-26.19zM760.646 382.138c-0.158-14.506-11.954-26.205-26.483-26.205-0.033 0-0.066 0-0.1 0h-540.434c-0.028 0-0.061 0-0.095 0-14.529 0-26.325 11.699-26.483 26.19v28.268c0.158 14.506 11.954 26.205 26.483 26.205 0.033 0 0.066 0 0.1 0h540.481c0.028 0 0.061 0 0.095 0 14.529 0 26.325-11.699 26.483-26.19z" />
<glyph unicode="&#xe904;" glyph-name="carousel-left-arrow" horiz-adv-x="626" d="M500.622 954.766c0.030 0 0.066 0 0.101 0 51.514 0 95.759-31.122 114.957-75.59 6.732-15.493 10.467-32.6 10.467-50.581 0-33.801-13.202-64.519-34.73-87.279l-280.179-296.901 279.95-295.026c21.532-22.705 34.774-53.457 34.774-87.303 0-35.78-14.799-68.103-38.61-91.183-22.409-21.729-52.963-35.103-86.641-35.103-35.59 0-67.691 14.937-90.377 38.884l-362.322 382.009c-21.464 22.69-34.66 53.395-34.66 87.182s13.196 64.492 34.716 87.242l362.213 384.339c22.793 24.224 55.061 39.31 90.853 39.31 0.060 0 0.119 0 0.179 0z" />
<glyph unicode="&#xe905;" glyph-name="carousel-right-arrow" horiz-adv-x="626" d="M125.156-58.766c-0.030 0-0.066 0-0.101 0-51.514 0-95.759 31.122-114.957 75.59-6.732 15.493-10.467 32.6-10.467 50.581 0 33.801 13.202 64.519 34.73 87.279l280.179 296.901-279.95 295.026c-21.532 22.705-34.774 53.457-34.774 87.303 0 35.78 14.799 68.103 38.61 91.183 22.409 21.729 52.963 35.103 86.641 35.103 35.59 0 67.691-14.937 90.377-38.884l362.322-382.009c21.464-22.69 34.66-53.395 34.66-87.182s-13.196-64.492-34.716-87.242l-362.213-384.339c-22.793-24.224-55.061-39.31-90.853-39.31-0.060 0-0.119 0-0.179 0z" />
<glyph unicode="&#xe906;" glyph-name="category" d="M926.657 960h-365.943c-26.935-0.011-51.316-10.936-68.963-28.592l-463.201-463.5c-17.65-17.673-28.566-42.076-28.566-69.028s10.915-51.355 28.567-69.029l365.046-365.302c17.645-17.64 42.020-28.551 68.942-28.551s51.297 10.91 68.943 28.551l464.054 463.456c17.717 17.665 28.678 42.096 28.678 69.087 0 0.002 0 0.003 0 0.005v365.303c0 0.013 0 0.028 0 0.043 0 53.879-43.677 97.556-97.556 97.556 0 0 0 0 0 0zM730.093 543.060c-0.013 0-0.028 0-0.043 0-67.997 0-123.119 55.122-123.119 123.119s55.122 123.119 123.119 123.119c67.982 0 123.095-55.098 123.119-123.074-0.049-67.973-55.112-123.067-123.067-123.164z" />
<glyph unicode="&#xe907;" glyph-name="check-mark" horiz-adv-x="1350" d="M607.582 14.821c-27.9-26.144-65.528-42.202-106.907-42.202s-79.007 16.058-106.993 42.282l-337.17 337.403c-26.144 27.9-42.202 65.528-42.202 106.907s16.058 79.007 42.282 106.993c27.82 26.058 65.449 42.116 106.828 42.116s79.007-16.058 106.993-42.282l202.177-202.41c7.957-5.366 17.761-8.565 28.312-8.565s20.355 3.199 28.495 8.681l550.776 550.955c27.9 26.144 65.528 42.202 106.907 42.202s79.007-16.058 106.993-42.282c27.946-26.339 45.399-63.715 45.399-105.167 0-2.576-0.067-5.136-0.201-7.679 0.133-1.831 0.201-4.391 0.201-6.967 0-41.452-17.454-78.828-45.413-105.179z" />
<glyph unicode="&#xe908;" glyph-name="designer" horiz-adv-x="745" d="M723.409 31.232l-36.026 282.577c-12.952 95.622-94.061 168.549-192.202 168.549-0.616 0-1.232-0.003-1.847-0.009l-265.587 0.001c-0.509 0.005-1.11 0.008-1.712 0.008-98.151 0-179.269-72.923-192.131-167.545l-33.904-284.139c-0.381-2.951-0.598-6.364-0.598-9.828 0-18.917 6.482-36.32 17.346-50.11 12.436-15.322 30.831-25.665 51.668-27.502l585.408-0.020c21.105 1.923 39.478 12.249 51.977 27.558 10.947 14.023 17.487 31.726 17.487 50.956 0 3.151-0.176 6.261-0.518 9.321zM568.785 753.524c0-0.055 0-0.121 0-0.186 0-114.136-92.526-206.662-206.662-206.662s-206.662 92.526-206.662 206.662c0 114.12 92.499 206.635 206.613 206.662 0.044 0 0.093 0 0.142 0 114.052 0 206.516-92.431 206.569-206.471z" />
<glyph unicode="&#xe909;" glyph-name="facebook" horiz-adv-x="539" d="M513.293 961.078h-128.323c-143.737 0-236.598-98.951-236.598-251.958v-116.251h-128.323c-11.106-0.301-19.995-9.376-19.995-20.527 0-0.002 0-0.005 0-0.007v-168.313c-0.002-0.113-0.004-0.247-0.004-0.381 0-11.209 8.982-20.321 20.141-20.53h128.343v-424.798c-0.002-0.113-0.004-0.247-0.004-0.381 0-11.209 8.982-20.321 20.141-20.53h167.848c11.179 0.21 20.16 9.321 20.16 20.53 0 0.134-0.001 0.267-0.004 0.401v424.778h150.42c11.179 0.21 20.16 9.321 20.16 20.53 0 0.134-0.001 0.267-0.004 0.401v168.293c-0.007 5.723-2.242 10.922-5.884 14.777-3.578 3.754-8.621 6.104-14.213 6.134h-150.156v98.897c0 47.266 10.779 71.357 70.063 71.357h86.232c11.179 0.21 20.16 9.321 20.16 20.53 0 0.134-0.001 0.267-0.004 0.401v155.628c0.002 0.114 0.004 0.249 0.004 0.384 0 11.152-8.891 20.228-19.971 20.526z" />
<glyph unicode="&#xe90a;" glyph-name="gift" horiz-adv-x="992" d="M438.144 391.488h-335.296c-0.057 0-0.125 0-0.192 0-26.548 0-48.083-21.467-48.192-47.99v-359.53c0.109-26.533 21.643-48 48.192-48 0.068 0 0.135 0 0.203 0h340.918c11.36 0 11.36 12.128 11.36 12.128v427.136c0.001 0.048 0.001 0.105 0.001 0.162 0 4.553-1.902 8.662-4.955 11.576-2.936 2.809-6.918 4.535-11.302 4.535-0.259 0-0.516-0.006-0.772-0.018zM889.024 391.488h-334.72c-20.416 0-17.344-21.056-17.344-21.056v-422.4c-0.002-0.072-0.003-0.157-0.003-0.242 0-3.222 1.337-6.131 3.487-8.203 2.080-1.994 4.904-3.219 8.013-3.219 0.21 0 0.42 0.006 0.627 0.017l340.163-0.001c0.057 0 0.125 0 0.192 0 26.548 0 48.083 21.467 48.192 47.99v359.21c-0.109 26.533-21.643 48-48.192 48-0.068 0-0.135 0-0.203 0zM455.136 674.336c0.001 0.067 0.002 0.146 0.002 0.225 0 8.837-7.163 16-16 16-0.068 0-0.136 0-0.204-0.001h-390.39c-0.057 0-0.125 0-0.192 0-26.548 0-48.083-21.467-48.192-47.99v-149.418c0.109-26.533 21.643-48 48.192-48 0.068 0 0.135 0 0.203 0h391.99c0.466-0.058 1.006-0.091 1.553-0.091 3.359 0 6.427 1.247 8.766 3.304 2.702 2.331 4.437 5.748 4.529 9.572zM943.552 690.56h-391.904c-0.223 0.012-0.484 0.020-0.746 0.020-3.791 0-7.237-1.482-9.789-3.898-2.696-2.549-4.378-6.159-4.378-10.162 0-0.025 0-0.050 0-0.076v-218.716s0-12.48 18.176-12.48h388.704c0.057 0 0.125 0 0.192 0 26.548 0 48.083 21.467 48.192 47.99v149.386c-0.109 26.533-21.643 48-48.192 48-0.068 0-0.135 0-0.203 0zM290.72 726.080c-0.827-0.008-1.805-0.012-2.784-0.012-20.227 0-40.013 1.891-59.19 5.506-36.37 4.18-69.545 23.32-92.318 51.272-11.696 17.075-18.554 37.851-18.554 60.228 0 9.204 1.16 18.138 3.343 26.662 6.876 51.075 50.835 90.589 104.022 90.589 2.751 0 5.477-0.106 8.174-0.313 14.544-0.113 28.997-1.691 42.97-4.579 48.094-11.795 91.628-31.76 130.116-58.483 72.476-48.148 76.156-78.58 72.476-97.268-5.408-27.392-31.232-46.976-79.168-59.904-32.616-8.7-70.061-13.696-108.674-13.696-0.191 0-0.381 0-0.572 0zM233.12 883.136c-23.488 0-31.552-6.4-36-29.024-3.616-18.4 0.96-24.832 2.464-26.944 12.145-11.486 28.081-19.078 45.744-20.713 13.101-2.413 27.824-3.78 42.867-3.78 0.899 0 1.797 0.005 2.694 0.015 0.414-0.004 1.065-0.006 1.717-0.006 31.904 0 62.812 4.264 92.186 12.254-0.888-0.121 1.576 1.703-1.048 3.271-34.709 28.083-76.088 49.465-121.296 61.437-10.346 2.254-19.663 3.329-29.203 3.49zM702.144 726.080v0c-0.156 0-0.341 0-0.526 0-38.618 0-76.069 4.997-111.742 14.378-44.724 12.406-70.548 31.83-76.116 59.222-3.712 18.624 0 49.12 73.76 98.112 37.209 25.855 80.74 45.817 127.591 57.331 15.219 3.205 29.672 4.783 44.472 4.908 2.443 0.187 5.176 0.293 7.933 0.293 53.205 0 97.172-39.551 104.104-90.855 2.079-8.324 3.238-17.259 3.238-26.465 0-22.371-6.844-43.143-18.553-60.337-22.725-27.854-55.907-47-93.592-51.404-17.837-3.349-37.588-5.228-57.778-5.228-1.004 0-2.006 0.005-3.008 0.014zM609.76 818.88c-0.847-0.311-1.441-1.11-1.441-2.048s0.594-1.737 1.426-2.043c27.175-7.567 58.362-11.914 90.565-11.914 0.645 0 1.289 0.002 1.933 0.005 0.66-0.009 1.557-0.014 2.455-0.014 15.066 0 29.813 1.367 44.123 3.984 16.487 1.368 32.439 8.973 44.587 20.539 1.473 2.050 6.049 8.706 2.401 26.882-4.384 22.4-12.48 29.024-35.968 29.024-9.64-0.138-18.95-1.192-27.955-3.078-46.382-12.152-87.632-33.379-122.843-61.791z" />
<glyph unicode="&#xe90b;" glyph-name="heart" horiz-adv-x="1170" d="M1073.201 863.451c-60.311 59.577-143.239 96.377-234.763 96.377-91.645 0-174.673-36.898-235.037-96.648l-18.063-17.868-18.578 18.383c-60.332 59.532-143.254 96.299-234.764 96.299s-174.432-36.767-234.801-96.335c-59.96-59.227-97.119-141.492-97.119-232.436s37.159-173.209 97.123-232.44l452.495-448.057c9.205-9.045 21.837-14.629 35.773-14.629 0.041 0 0.081 0 0.122 0 13.956 0.062 26.606 5.629 35.895 14.641l451.181 447.329c60.29 59.309 97.647 141.77 97.647 232.956 0 90.946-37.161 173.212-97.127 232.443z" />
<glyph unicode="&#xe90c;" glyph-name="heart-is-active" horiz-adv-x="1186" d="M421.295 288.849v0c-12.541 12.213-20.321 29.262-20.321 48.128s7.78 35.915 20.306 48.114l224.54 219.689-359.909 352.094c-73.622-10.833-138-44.217-187.383-92.797-60.774-58.827-98.528-141.209-98.528-232.409 0-0.112 0-0.224 0-0.336 0-0.029 0-0.083 0-0.138 0-91.217 37.869-173.588 98.743-232.251l458.205-448.176c9.364-9.101 22.162-14.713 36.27-14.713 0.038 0 0.076 0 0.114 0 14.126 0.066 26.939 5.661 36.391 14.731l69.29 67.782-269.474 263.653c-3.076 2.118-5.768 4.296-8.281 6.662zM813.703 604.78c0-0.095 0.001-0.208 0.001-0.32 0-18.904-7.823-35.98-20.409-48.168l-223.789-218.884 228.029-222.963 289.415 283.325c60.893 58.972 98.727 141.442 98.843 232.75 0.001 0.234 0.001 0.486 0.001 0.737 0 91.025-37.648 173.257-98.221 231.975-61.019 59.772-144.541 96.608-236.667 96.608-0.403 0-0.806-0.001-1.209-0.002-0.367 0.002-0.876 0.003-1.384 0.003-92.153 0-175.691-36.881-236.66-96.689l-16.546-16.116 198.171-194.021c12.603-12.205 20.426-29.281 20.426-48.184 0-0.018 0-0.036 0-0.054z" />
<glyph unicode="&#xe90d;" glyph-name="menu" horiz-adv-x="1164" d="M1163.683 908.753c0.057 0.897 0.090 1.945 0.090 3 0 13.248-5.134 25.296-13.521 34.265-8.148 8.622-19.7 14.006-32.509 14.006-0.884 0-1.762-0.026-2.634-0.076l-1066.562 0.006c-0.751 0.045-1.629 0.071-2.513 0.071-12.809 0-24.361-5.384-32.515-14.013-8.381-8.961-13.515-21.010-13.515-34.258 0-1.055 0.033-2.103 0.097-3.143l-0.007-102.258c-0.057-0.897-0.090-1.945-0.090-3 0-13.248 5.134-25.296 13.521-34.265 8.148-8.622 19.7-14.006 32.509-14.006 0.884 0 1.762 0.026 2.634 0.076l1066.422-0.006c0.751-0.045 1.629-0.071 2.513-0.071 12.809 0 24.361 5.384 32.515 14.013 8.381 8.961 13.515 21.010 13.515 34.258 0 1.055-0.033 2.103-0.097 3.143zM1163.683 499.2c0.057 0.897 0.090 1.945 0.090 3 0 13.248-5.134 25.296-13.521 34.265-8.148 8.622-19.7 14.006-32.509 14.006-0.884 0-1.762-0.026-2.634-0.076l-1066.562 0.006c-0.751 0.045-1.629 0.071-2.513 0.071-12.809 0-24.361-5.384-32.515-14.013-8.381-8.961-13.515-21.010-13.515-34.258 0-1.055 0.033-2.103 0.097-3.143l-0.007-102.258c-0.057-0.897-0.090-1.945-0.090-3 0-13.248 5.134-25.296 13.521-34.265 8.148-8.622 19.7-14.006 32.509-14.006 0.884 0 1.762 0.026 2.634 0.076l1066.422-0.006c0.757-0.046 1.641-0.072 2.532-0.072 12.804 0 24.349 5.385 32.496 14.014 8.381 8.962 13.515 21.010 13.515 34.258 0 1.055-0.033 2.103-0.097 3.143zM1163.683 89.647c0.057 0.897 0.090 1.945 0.090 3 0 13.248-5.134 25.296-13.521 34.265-8.148 8.622-19.7 14.006-32.509 14.006-0.884 0-1.762-0.026-2.634-0.076l-1066.562 0.006c-0.745 0.044-1.617 0.070-2.494 0.070-12.815 0-24.373-5.383-32.535-14.012-8.38-8.961-13.515-21.009-13.515-34.257 0-1.055 0.033-2.103 0.097-3.143l-0.007-102.258c-0.057-0.897-0.090-1.945-0.090-3 0-13.248 5.134-25.296 13.521-34.265 8.148-8.622 19.7-14.006 32.509-14.006 0.884 0 1.762 0.026 2.634 0.076l1066.422-0.006c0.751-0.045 1.629-0.071 2.513-0.071 12.809 0 24.361 5.384 32.515 14.013 8.381 8.955 13.516 20.998 13.516 34.24 0 1.061-0.033 2.115-0.098 3.16z" />
<glyph unicode="&#xe90e;" glyph-name="product" horiz-adv-x="896" d="M869.248 720.853l-182.528 105.131-422.784-247.083 24.149-12.8 158.293-92.501 157.483 91.861zM408.704 416.341l-176.725 102.997v-117.12l-75.861 39.253v122.453l-156.117 91.008v-450.219c0.976-19.37 12.357-35.87 28.63-44.108l39.168-22.964v-0.213l340.437-198.869zM530.219 443.819l-45.739-26.752v-481.067l382.251 223.488c16.548 8.402 27.915 24.887 28.923 44.116l0.005 73.473v380.501zM568.107 896.64l-93.227 54.656c-8.014 5.451-17.906 8.704-28.557 8.704-8.718 0-16.927-2.179-24.112-6.022l-30.957-18.34-367.744-214.827 158.507-92.715 422.869 247.083z" />
<glyph unicode="&#xe90f;" glyph-name="rising-star" horiz-adv-x="1072" d="M278.31-50.941c-61.345-32.278-101.606-3.037-89.892 65.076l49.241 287.031-208.505 203.516c-49.632 48.374-34.274 95.662 34.317 105.641l288.202 41.909 128.895 261.13c30.673 62.17 80.391 62.17 111.064 0l128.851-261.13 288.202-41.909c68.591-9.978 83.949-57.267 34.317-105.641l-208.505-203.256 49.241-287.031c11.714-68.33-28.547-97.528-89.892-65.076l-257.746 135.533z" />
<glyph unicode="&#xe910;" glyph-name="search" d="M995.84 85.402l-221.747 221.594c-1.178 1.178-2.56 1.997-3.789 3.123 43.37 65.018 69.208 144.951 69.208 230.918 0 231.871-187.969 419.84-419.84 419.84s-419.84-187.969-419.84-419.84c0-231.871 187.969-419.84 419.84-419.84 85.842 0 165.666 25.762 232.163 69.977-0.418-2.195 0.401-3.577 1.579-4.755l221.747-221.594c15.432-15.444 36.757-24.998 60.314-24.998 47.088 0 85.26 38.172 85.26 85.26 0 23.531-9.533 44.836-24.947 60.263zM419.738 266.598c-151.272 0.088-273.869 122.738-273.869 274.022 0 151.338 122.684 274.022 274.022 274.022s274.022-122.684 274.022-274.022c-0.058-151.351-122.766-274.022-274.125-274.022-0.036 0-0.072 0-0.108 0z" />
<glyph unicode="&#xe911;" glyph-name="share-left" horiz-adv-x="1186" d="M12.557 619.87c-7.76-7.198-12.601-17.451-12.601-28.834s4.841-21.635 12.576-28.811l338.861-327.811c7.764-7.388 18.293-11.932 29.883-11.932 5.795 0 11.325 1.136 16.379 3.198 15.010 5.942 25.68 20.508 25.903 37.594v163.975h148.264q64.674 0 116.143-3.827c38.305-2.93 73.051-7.803 107.071-14.676 27.645-5.144 57.154-14.486 84.925-27.001 24.17-11.541 47.107-26.408 67.745-43.905 20.878-17.552 38.579-38.984 51.942-63.148 14.477-26.631 25.628-56.156 32.503-87.287 7.87-35.452 12.141-73.582 12.141-112.71 0-1.923-0.010-3.843-0.031-5.761q0.002-34.901-3.339-78.286c-0.308-5.58-0.923-10.745-1.84-15.805-0.747-4.214-1.328-10.070-1.497-16.030-0.023-0.535-0.035-0.954-0.035-1.374 0-5.713 2.048-10.947 5.45-15.009 3.552-3.895 8.694-6.353 14.41-6.353 0.381 0 0.759 0.011 1.134 0.032 7.791 0.267 14.598 4.467 18.486 10.681 3.284 4.178 6.161 8.798 8.493 13.726q4.12 8.682 9.132 20.108c3.234 7.276 5.389 12.396 6.899 15.306 45.062 83.702 75.14 181.859 83.891 286.084 0.342 7.713 0.432 13.563 0.432 19.434 0 70.549-12.938 138.077-36.571 200.339q-105.904 254.167-577.483 254.167h-148.264v163.085c-0.126 17.115-10.784 31.708-25.809 37.63-5.032 2.061-10.554 3.201-16.343 3.201-11.698 0-22.309-4.659-30.077-12.223z" />
<glyph unicode="&#xe912;" glyph-name="share-right" horiz-adv-x="1186" d="M1173.288 620.463l-338.836 327.626c-7.764 7.388-18.293 11.932-29.883 11.932-5.795 0-11.325-1.136-16.379-3.198-15.019-5.93-25.696-20.503-25.903-37.596v-163.866h-148.264q-471.848 0-578.776-257.886c-22.336-58.424-35.271-125.998-35.271-196.593 0-5.786 0.087-11.551 0.259-17.295 8.922-106.046 38.999-204.13 86.017-291.767-0.614 0.984 1.703-4.028 4.937-11.304s6.306-13.635 8.947-19.618c2.517-5.364 5.394-9.984 8.738-14.218 3.829-6.158 10.635-10.359 18.44-10.627 0.362-0.020 0.74-0.031 1.121-0.031 5.716 0 10.857 2.458 14.425 6.374 3.386 4.041 5.434 9.275 5.434 14.988 0 0.421-0.011 0.839-0.033 1.254-0.174 6.083-0.755 11.94-1.718 17.666-0.696 3.542-1.311 8.708-1.606 13.959q-3.356 43.823-3.356 78.855c-0.018 1.618-0.028 3.529-0.028 5.442 0 39.099 4.27 77.201 12.37 113.865 6.641 29.893 17.793 59.419 32.577 86.688 13.057 23.529 30.759 44.961 51.75 62.606 20.526 17.382 43.464 32.231 68.182 43.934 27.222 12.334 56.731 21.676 87.515 27.387 30.873 6.304 65.618 11.177 100.959 13.926q54.228 4.012 119.117 4.012h148.264v-163.84c0.126-17.115 10.784-31.708 25.809-37.63 5.032-2.061 10.554-3.201 16.343-3.201 11.698 0 22.309 4.659 30.077 12.223l338.773 327.563c7.758 7.189 12.597 17.433 12.597 28.807s-4.84 21.617-12.572 28.784z" />
<glyph unicode="&#xe913;" glyph-name="shopping-cart" horiz-adv-x="1270" d="M1257.314 719.754c-14.65 19.456-37.705 31.904-63.667 31.904-1.267 0-2.527-0.030-3.779-0.088l-908.78 0.007-25.088 110.907c-14.569 55.264-63.268 95.667-121.693 97.511l-98.9 0.005c-19.576 0-35.446-15.87-35.446-35.446s15.87-35.446 35.446-35.446h98.698c25.45-1.74 46.424-19.084 53.531-42.464l0.111-0.426 123.589-554.575c12.542-48.952 55.64-84.791 107.329-86.17l605.139-0.003c44.947 1.789 83.008 29.49 99.794 68.502l139.704 371.622c4.107 9.267 6.499 20.076 6.499 31.444 0 15.86-4.655 30.634-12.673 43.028zM450.521 127.606c52.9 0 95.783-42.884 95.783-95.783s-42.884-95.783-95.783-95.783c-52.9 0-95.783 42.884-95.783 95.783s42.884 95.783 95.783 95.783zM916.441 127.724c-52.9 0-95.783-42.884-95.783-95.783s42.884-95.783 95.783-95.783c52.9 0 95.783 42.884 95.783 95.783s-42.884 95.783-95.783 95.783c0 0 0 0 0 0z" />
<glyph unicode="&#xe914;" glyph-name="whatsapp" d="M520.515 960c-278.025-0.055-503.388-225.452-503.388-503.485 0-91.99 24.67-178.217 67.755-252.428l-84.936-245.506c-0.587-1.655-0.927-3.563-0.927-5.551 0-9.436 7.649-17.085 17.085-17.085 0.004 0 0.008 0 0.011 0 0.639-0.090 1.378-0.141 2.128-0.141s1.489 0.051 2.213 0.15l270.629 71.239c66.47-34.582 145.143-54.865 228.554-54.865 278.067 0 503.485 225.418 503.485 503.485s-225.418 503.485-503.485 503.485c-0.109 0-0.218 0-0.327 0zM834.776 227.84l-30.073-30.073c-31.331-34.203-75.845-55.888-125.437-56.963-79.468 7.871-148.468 46.423-196.1 103.443l-174.241 174.543c-45.97 41.261-80.495 94.39-98.805 154.582-3.447 13.962-5.063 27.221-5.063 40.857 0 50.249 21.935 95.375 56.753 126.324l30.245 30.223c11.56 11.475 27.484 18.567 45.065 18.567 10.812 0 20.997-2.682 29.926-7.417 39.636-29.785 72.4-67.039 96.453-109.844 7.105-11.441 10.783-23.244 10.783-35.906 0-4.997-0.573-9.86-1.656-14.527-3.122-10.889-10.376-20.16-19.978-25.918-13.838-11.646-30.060-26.144-33.078-29.539-7.212-8.096-11.618-18.829-11.618-30.59 0-15.132 7.294-28.56 18.557-36.961l135.99-135.955c8.488-11.377 21.912-18.665 37.037-18.665 11.868 0 22.688 4.487 30.857 11.856 3.355 2.712 17.691 18.935 29.17 32.624 7.937 13.025 22.063 21.59 38.19 21.59 0.595 0 1.188-0.012 1.777-0.035 12.766-0.225 24.727-3.84 35-9.985 44.193-24.874 81.43-57.622 110.802-96.627 5.22-9.488 7.902-19.673 7.902-30.485 0-17.581-7.092-33.505-18.571-45.069z" />
</font>
</defs>
</svg>
