<?xml version="1.0" encoding="utf-8"?>
<!-- Generated by IcoMoon.io -->
<!DOCTYPE svg PUBLIC "-//W3C//DTD SVG 1.1//EN" "http://www.w3.org/Graphics/SVG/1.1/DTD/svg11.dtd">
<svg version="1.1" xmlns="http://www.w3.org/2000/svg" xmlns:xlink="http://www.w3.org/1999/xlink" width="32" height="32" viewBox="0 0 32 32">
<path fill="#fff" d="M0 16c0 1.867 0.324 3.657 0.914 5.333h30.171c0.59-1.676 0.914-3.467 0.914-5.333s-0.324-3.657-0.914-5.333h-30.171c-0.59 1.676-0.914 3.467-0.914 5.333z"></path>
<path fill="#f48677" d="M12.19 12.952h1.524v1.524h-1.524v-1.524z"></path>
<path fill="#f48677" d="M15.238 12.952h1.524v1.524h-1.524v-1.524z"></path>
<path fill="#f48677" d="M18.286 12.952h1.524v1.524h-1.524v-1.524z"></path>
<path fill="#f48677" d="M13.714 14.476h1.524v1.524h-1.524v-1.524z"></path>
<path fill="#f48677" d="M16.762 14.476h1.524v1.524h-1.524v-1.524z"></path>
<path fill="#f48677" d="M13.714 17.524h1.524v1.524h-1.524v-1.524z"></path>
<path fill="#f48677" d="M16.762 17.524h1.524v1.524h-1.524v-1.524z"></path>
<path fill="#f48677" d="M12.19 16h1.524v1.524h-1.524v-1.524z"></path>
<path fill="#f48677" d="M15.238 16h1.524v1.524h-1.524v-1.524z"></path>
<path fill="#f48677" d="M18.286 16h1.524v1.524h-1.524v-1.524z"></path>
<path fill="#779df4" d="M16 32c6.971 0 12.895-4.457 15.086-10.667h-30.171c2.19 6.21 8.114 10.667 15.086 10.667z"></path>
<path fill="#f48677" d="M16 0c-6.971 0-12.895 4.457-15.086 10.667h30.171c-2.19-6.21-8.114-10.667-15.086-10.667z"></path>
</svg>
