<?xml version="1.0" encoding="utf-8"?>
<!-- Generated by IcoMoon.io -->
<!DOCTYPE svg PUBLIC "-//W3C//DTD SVG 1.1//EN" "http://www.w3.org/Graphics/SVG/1.1/DTD/svg11.dtd">
<svg version="1.1" xmlns="http://www.w3.org/2000/svg" xmlns:xlink="http://www.w3.org/1999/xlink" width="32" height="32" viewBox="0 0 32 32">
<path fill="#fff" d="M32 16c0 8.837-7.163 16-16 16s-16-7.163-16-16c0-8.837 7.163-16 16-16s16 7.163 16 16z"></path>
<path fill="#f48677" d="M0.286 19.048c1.029 5.333 4.705 9.733 9.619 11.752v-11.752h-9.619z"></path>
<path fill="#f48677" d="M31.714 12.952c-1.429-7.371-7.924-12.952-15.714-12.952v12.952h15.714z"></path>
<path fill="#f48677" d="M16 32c7.79 0 14.286-5.581 15.714-12.952h-15.714v12.952z"></path>
<path fill="#f48677" d="M9.905 1.2c-4.895 2.019-8.59 6.419-9.619 11.752h9.619v-11.752z"></path>
</svg>
