<?xml version="1.0" encoding="utf-8"?>
<!-- Generated by IcoMoon.io -->
<!DOCTYPE svg PUBLIC "-//W3C//DTD SVG 1.1//EN" "http://www.w3.org/Graphics/SVG/1.1/DTD/svg11.dtd">
<svg version="1.1" xmlns="http://www.w3.org/2000/svg" xmlns:xlink="http://www.w3.org/1999/xlink" width="32" height="32" viewBox="0 0 32 32">
<path fill="#ffd997" d="M0 16c0 2.152 0.438 4.21 1.2 6.095h29.581c0.781-1.886 1.2-3.943 1.2-6.095s-0.438-4.21-1.2-6.095h-29.581c-0.762 1.886-1.2 3.943-1.2 6.095z"></path>
<path fill="#f48677" d="M12.952 12.19v4.571c0 1.676-1.371 3.048-3.048 3.048s-3.048-1.371-3.048-3.048v-4.571h6.095z"></path>
<path fill="#f48677" d="M16 0c-6.686 0-12.4 4.095-14.8 9.905h29.581c-2.381-5.81-8.095-9.905-14.781-9.905z"></path>
<path fill="#f48677" d="M16 32c6.686 0 12.4-4.095 14.8-9.905h-29.6c2.4 5.81 8.114 9.905 14.8 9.905z"></path>
</svg>
