<?xml version="1.0" encoding="utf-8"?>
<!-- Generated by IcoMoon.io -->
<!DOCTYPE svg PUBLIC "-//W3C//DTD SVG 1.1//EN" "http://www.w3.org/Graphics/SVG/1.1/DTD/svg11.dtd">
<svg version="1.1" xmlns="http://www.w3.org/2000/svg" xmlns:xlink="http://www.w3.org/1999/xlink" width="752" height="32" viewBox="0 0 752 32">
<svg id="icon-belgium" width="32" height="32" viewBox="0 0 32 32" x="0" y="0">
<path fill="#ffd997" d="M16 0c-1.867 0-3.657 0.324-5.333 0.914v30.171c1.676 0.59 3.467 0.914 5.333 0.914s3.657-0.324 5.333-0.914v-30.171c-1.676-0.59-3.467-0.914-5.333-0.914z"></path>
<path fill="#f48677" d="M21.333 0.914v30.171c6.21-2.19 10.667-8.114 10.667-15.086s-4.457-12.895-10.667-15.086z"></path>
<path fill="#656868" d="M0 16c0 6.971 4.457 12.895 10.667 15.086v-30.171c-6.21 2.19-10.667 8.114-10.667 15.086z"></path>
</svg>
<svg id="icon-croatia" width="32" height="32" viewBox="0 0 32 32" x="48" y="0">
<path fill="#fff" d="M0 16c0 1.867 0.324 3.657 0.914 5.333h30.171c0.59-1.676 0.914-3.467 0.914-5.333s-0.324-3.657-0.914-5.333h-30.171c-0.59 1.676-0.914 3.467-0.914 5.333z"></path>
<path fill="#f48677" d="M12.19 12.952h1.524v1.524h-1.524v-1.524z"></path>
<path fill="#f48677" d="M15.238 12.952h1.524v1.524h-1.524v-1.524z"></path>
<path fill="#f48677" d="M18.286 12.952h1.524v1.524h-1.524v-1.524z"></path>
<path fill="#f48677" d="M13.714 14.476h1.524v1.524h-1.524v-1.524z"></path>
<path fill="#f48677" d="M16.762 14.476h1.524v1.524h-1.524v-1.524z"></path>
<path fill="#f48677" d="M13.714 17.524h1.524v1.524h-1.524v-1.524z"></path>
<path fill="#f48677" d="M16.762 17.524h1.524v1.524h-1.524v-1.524z"></path>
<path fill="#f48677" d="M12.19 16h1.524v1.524h-1.524v-1.524z"></path>
<path fill="#f48677" d="M15.238 16h1.524v1.524h-1.524v-1.524z"></path>
<path fill="#f48677" d="M18.286 16h1.524v1.524h-1.524v-1.524z"></path>
<path fill="#779df4" d="M16 32c6.971 0 12.895-4.457 15.086-10.667h-30.171c2.19 6.21 8.114 10.667 15.086 10.667z"></path>
<path fill="#f48677" d="M16 0c-6.971 0-12.895 4.457-15.086 10.667h30.171c-2.19-6.21-8.114-10.667-15.086-10.667z"></path>
</svg>
<svg id="icon-denmark" width="32" height="32" viewBox="0 0 32 32" x="96" y="0">
<path fill="#fff" d="M32 16c0 8.837-7.163 16-16 16s-16-7.163-16-16c0-8.837 7.163-16 16-16s16 7.163 16 16z"></path>
<path fill="#f48677" d="M0.286 19.048c1.029 5.333 4.705 9.733 9.619 11.752v-11.752h-9.619z"></path>
<path fill="#f48677" d="M31.714 12.952c-1.429-7.371-7.924-12.952-15.714-12.952v12.952h15.714z"></path>
<path fill="#f48677" d="M16 32c7.79 0 14.286-5.581 15.714-12.952h-15.714v12.952z"></path>
<path fill="#f48677" d="M9.905 1.2c-4.895 2.019-8.59 6.419-9.619 11.752h9.619v-11.752z"></path>
</svg>
<svg id="icon-germany" width="32" height="32" viewBox="0 0 32 32" x="144" y="0">
<path fill="#f48677" d="M32 16c0 8.837-7.163 16-16 16s-16-7.163-16-16c0-8.837 7.163-16 16-16s16 7.163 16 16z"></path>
<path fill="#ffd997" d="M16 32c6.971 0 12.895-4.457 15.086-10.667h-30.171c2.19 6.21 8.114 10.667 15.086 10.667z"></path>
<path fill="#656868" d="M16 0c-6.971 0-12.895 4.457-15.086 10.667h30.171c-2.19-6.21-8.114-10.667-15.086-10.667z"></path>
</svg>
<svg id="icon-netherlands" width="32" height="32" viewBox="0 0 32 32" x="192" y="0">
<path fill="#fff" d="M32 16c0 8.837-7.163 16-16 16s-16-7.163-16-16c0-8.837 7.163-16 16-16s16 7.163 16 16z"></path>
<path fill="#779df4" d="M16 32c6.971 0 12.895-4.457 15.086-10.667h-30.171c2.19 6.21 8.114 10.667 15.086 10.667z"></path>
<path fill="#f48677" d="M16 0c-6.971 0-12.895 4.457-15.086 10.667h30.171c-2.19-6.21-8.114-10.667-15.086-10.667z"></path>
</svg>
<svg id="icon-poland" width="32" height="32" viewBox="0 0 32 32" x="240" y="0">
<path fill="#fff" d="M32 16c0 8.837-7.163 16-16 16s-16-7.163-16-16c0-8.837 7.163-16 16-16s16 7.163 16 16z"></path>
<path fill="#f48677" d="M32 16h-32c0 8.838 7.162 16 16 16s16-7.162 16-16z"></path>
</svg>
<svg id="icon-spain" width="32" height="32" viewBox="0 0 32 32" x="288" y="0">
<path fill="#ffd997" d="M0 16c0 2.152 0.438 4.21 1.2 6.095h29.581c0.781-1.886 1.2-3.943 1.2-6.095s-0.438-4.21-1.2-6.095h-29.581c-0.762 1.886-1.2 3.943-1.2 6.095z"></path>
<path fill="#f48677" d="M12.952 12.19v4.571c0 1.676-1.371 3.048-3.048 3.048s-3.048-1.371-3.048-3.048v-4.571h6.095z"></path>
<path fill="#f48677" d="M16 0c-6.686 0-12.4 4.095-14.8 9.905h29.581c-2.381-5.81-8.095-9.905-14.781-9.905z"></path>
<path fill="#f48677" d="M16 32c6.686 0 12.4-4.095 14.8-9.905h-29.6c2.4 5.81 8.114 9.905 14.8 9.905z"></path>
</svg>
</svg>
