<svg xmlns="http://www.w3.org/2000/svg" viewBox="1211 1180 19 22">
  <g id="gruppieren-106" transform="translate(1210.993 1180.02)">
    <path id="pfad" d="M112.64,322.93" transform="translate(-107.345 -312.596)"/>
    <path id="pfad-2" data-name="pfad" class="cls-1" d="M-44.343,15.767h3.9A1.184,1.184,0,0,0-39.261,14.6V10.75a.585.585,0,0,0-.176-.419.6.6,0,0,0-.425-.172.585.585,0,0,0-.418.176l-4.487,4.425a.589.589,0,0,0,.424,1.006Zm0,0" transform="translate(44.95 -10.18)"/>
    <path id="pfad-3" data-name="pfad" class="cls-1" d="M-.474,37.89H-10.62v.463a1.337,1.337,0,0,1,.008.148v3.837a1.988,1.988,0,0,1-2,1.973H-16.5c-.04,0-.083,0-.124-.005h-.494V57.571a1.411,1.411,0,0,0,1.42,1.4H-.474a1.411,1.411,0,0,0,1.42-1.4V39.291A1.411,1.411,0,0,0-.474,37.89ZM-1.712,53.735a.569.569,0,0,1-.571.563H-13.894a.569.569,0,0,1-.571-.563v-.607a.569.569,0,0,1,.571-.563H-2.282a.569.569,0,0,1,.571.563Zm0-4.348a.569.569,0,0,1-.571.563H-13.894a.569.569,0,0,1-.571-.563V48.78a.569.569,0,0,1,.571-.563H-2.282a.569.569,0,0,1,.571.563Z" transform="translate(18.061 -36.992)"/>
  </g>
</svg>
