<svg xmlns="http://www.w3.org/2000/svg" xmlns:xlink="http://www.w3.org/1999/xlink" viewBox="1862 472 11 18">
  <defs>
    <style>
      .cls-1 {
        fill: none;
      }

      .cls-2 {
        clip-path: url(#clip-path);
      }

      .cls-3 {
        fill: #555;
      }
    </style>
    <clipPath id="clip-path">
      <rect id="rechteck" class="cls-1" width="11" height="18"/>
    </clipPath>
  </defs>
  <g id="gruppieren-76" class="cls-2" transform="translate(1862 472)">
    <path id="pfad" class="cls-3" d="M288.193,420.8a2.2,2.2,0,0,1-2.028-1.343,2.233,2.233,0,0,1,.431-2.408l4.926-5.22-4.921-5.186a2.232,2.232,0,0,1,.068-3.138,2.188,2.188,0,0,1,3.112.068l6.368,6.714a2.232,2.232,0,0,1,0,3.065l-6.368,6.757a2.191,2.191,0,0,1-1.6.691Zm0,0" transform="translate(-285.993 -402.892)"/>
  </g>
</svg>
