<svg xmlns="http://www.w3.org/2000/svg" viewBox="-1257 625 24 23.995">
  <defs>
    <style>
      .cls-1 {
        fill: #555;
      }
    </style>
  </defs>
  <path id="path" class="cls-1" d="M21.714.082H13.139a2.286,2.286,0,0,0-1.616.67L.669,11.613a2.289,2.289,0,0,0,0,3.235l8.554,8.56a2.285,2.285,0,0,0,3.231,0L23.328,12.548A2.286,2.286,0,0,0,24,10.929V2.369A2.286,2.286,0,0,0,21.714.082Zm-4.606,9.77a2.885,2.885,0,1,1,2.884-2.886A2.888,2.888,0,0,1,17.108,9.852Z" transform="translate(-1257 624.918)"/>
</svg>
