<svg xmlns="http://www.w3.org/2000/svg" xmlns:xlink="http://www.w3.org/1999/xlink" viewBox="815 1180 16 22">
  <g id="gruppieren-107" transform="translate(815 1180)">
    <g id="gruppieren" class="cls-2">
      <path id="pfad" class="cls-3" d="M299.533,429.841l-.774-6.071a4.165,4.165,0,0,0-4.167-3.621h-5.708a4.166,4.166,0,0,0-4.167,3.621l-.726,6.083a1.741,1.741,0,0,0,.357,1.284,1.614,1.614,0,0,0,1.119.595h12.571a1.626,1.626,0,0,0,1.119-.595,1.783,1.783,0,0,0,.363-1.284Zm0,0" transform="translate(-283.991 -409.887)"/>
    </g>
    <path id="pfad-2" data-name="pfad" class="cls-3" d="M298.491,407.326a4.44,4.44,0,1,1-4.441-4.436A4.438,4.438,0,0,1,298.491,407.326Zm0,0" transform="translate(-286.271 -402.89)"/>
  </g>
</svg>
