<svg xmlns="http://www.w3.org/2000/svg" xmlns:xlink="http://www.w3.org/1999/xlink" viewBox="-474 1106 10 19">
  <defs>
    <style>
      .cls-1 {
        fill: none;
      }

      .cls-2 {
        clip-path: url(#clip-path);
      }

      .cls-3 {
        fill: #555;
      }
    </style>
    <clipPath id="clip-path">
      <rect id="rechteck" class="cls-1" width="10" height="19" transform="translate(0 0.1)"/>
    </clipPath>
  </defs>
  <g id="gruppieren-39" class="cls-2" transform="translate(-474 1105.9)">
    <path id="pfad" class="cls-3" d="M285.524,382.81h-2.381c-2.667,0-4.39,1.836-4.39,4.675v2.157h-2.381a.381.381,0,0,0-.371.381v3.123a.381.381,0,0,0,.374.388h2.381v7.882a.381.381,0,0,0,.374.388h3.114a.381.381,0,0,0,.374-.388v-7.882h2.791a.381.381,0,0,0,.374-.388v-3.123a.4.4,0,0,0-.109-.274.367.367,0,0,0-.264-.114h-2.786V387.8c0-.877.2-1.324,1.3-1.324h1.6a.381.381,0,0,0,.374-.388V383.2a.381.381,0,0,0-.371-.388Zm0,0" transform="translate(-276 -382.73)"/>
  </g>
</svg>
