<svg xmlns="http://www.w3.org/2000/svg" viewBox="945 8283 31 32">
  <g id="gruppieren-114" transform="translate(945 8283)">
    <path id="pfad" class="cls-1" d="M208.37,434.207H197.892a1.506,1.506,0,0,0-1.512,1.5v11.235a1.506,1.506,0,0,0,1.512,1.5h10.654c.355,0,.355-.379.355-.379V434.715a.5.5,0,0,0-.155-.367A.511.511,0,0,0,208.37,434.207Zm0,0" transform="translate(-194.678 -416.441)"/>
    <path id="pfad-2" data-name="pfad" class="cls-1" d="M317.03,434.193h-10.46c-.638,0-.542.658-.542.658v13.2a.356.356,0,0,0,.109.264.362.362,0,0,0,.269.1h10.631a1.506,1.506,0,0,0,1.512-1.5V435.69a1.506,1.506,0,0,0-1.512-1.5Zm0,0" transform="translate(-289.248 -416.427)"/>
    <path id="pfad-3" data-name="pfad" class="cls-1" d="M198.223,366.157a.5.5,0,0,0-.506-.507h-12.2a1.506,1.506,0,0,0-1.512,1.5v4.669a1.506,1.506,0,0,0,1.512,1.5h12.25a.415.415,0,0,0,.322-.1.408.408,0,0,0,.142-.3Zm0,0" transform="translate(-184 -357.23)"/>
    <path id="pfad-4" data-name="pfad" class="cls-1" d="M318.723,365.624H306.476a.445.445,0,0,0-.329.121.437.437,0,0,0-.137.32V372.9s0,.39.568.39h12.147a1.506,1.506,0,0,0,1.512-1.5v-4.668a1.506,1.506,0,0,0-1.512-1.5Zm0,0" transform="translate(-289.237 -357.204)"/>
    <path id="pfad-5" data-name="pfad" class="cls-1" d="M216.3,311.2a9.925,9.925,0,0,1-1.875-.162,4.448,4.448,0,0,1-2.953-1.62,3.349,3.349,0,0,1-.474-2.684,3.284,3.284,0,0,1,3.5-2.845,6.955,6.955,0,0,1,1.309.136,12.179,12.179,0,0,1,4.071,1.809c2.305,1.531,2.42,2.482,2.305,3.066-.169.856-.976,1.468-2.474,1.872a13.687,13.687,0,0,1-3.413.428Zm-1.8-4.908c-.734,0-.986.2-1.125.907-.113.575.03.776.077.842a2.41,2.41,0,0,0,1.439.648,7.592,7.592,0,0,0,1.41.117,10.949,10.949,0,0,0,2.862-.365c.049-.014.126-.071.044-.12a10.251,10.251,0,0,0-3.862-1.936,4.56,4.56,0,0,0-.845-.093Zm0,0" transform="translate(-207.215 -303.89)"/>
    <path id="pfad-6" data-name="pfad" class="cls-1" d="M306.481,311.2h0a13.691,13.691,0,0,1-3.413-.428c-1.493-.409-2.3-1.016-2.474-1.872-.116-.582,0-1.535,2.305-3.066a12.214,12.214,0,0,1,4.071-1.809,6.913,6.913,0,0,1,1.309-.136,3.283,3.283,0,0,1,3.5,2.847,3.354,3.354,0,0,1-.473,2.684,4.442,4.442,0,0,1-2.953,1.62,9.949,9.949,0,0,1-1.874.161Zm-2.887-2.9a.068.068,0,0,0,0,.128,10.944,10.944,0,0,0,2.887.372,7.616,7.616,0,0,0,1.412-.117,2.386,2.386,0,0,0,1.439-.648c.047-.065.19-.273.076-.841-.137-.7-.39-.907-1.124-.907a4.548,4.548,0,0,0-.844.091,10.175,10.175,0,0,0-3.849,1.921Zm0,0" transform="translate(-284.539 -303.89)"/>
  </g>
</svg>
