<svg id="group-313" xmlns="http://www.w3.org/2000/svg" viewBox="75 924 22 19">
  <defs>
    <style>
      .cls-1 {
        fill: #555;
      }
    </style>
  </defs>
  <path id="pfad" class="cls-1" d="M-663.183,260.685h0a1.246,1.246,0,0,1,0-1.786l4.166-4.076-6.678-6.533a6.217,6.217,0,0,0-3.476,1.721A6,6,0,0,0-671,254.33a5.984,5.984,0,0,0,1.834,4.314l8.5,8.314a.966.966,0,0,0,.675.273.982.982,0,0,0,.675-.273l1.286-1.258-5-4.892A1.273,1.273,0,0,1-663.183,260.685Z" transform="translate(746 675.768)"/>
  <path id="pfad-2" data-name="pfad" class="cls-1" d="M-484.848,253.861a1.244,1.244,0,0,1-.379.9l-4.152,4.061,4.231,4.137,5.37-5.257a6.02,6.02,0,0,0,1.834-4.319,5.994,5.994,0,0,0-1.824-4.319,6.275,6.275,0,0,0-4.411-1.791,6.271,6.271,0,0,0-4.417,1.793l-.308.3,3.677,3.6A1.244,1.244,0,0,1-484.848,253.861Z" transform="translate(574.946 676.73)"/>
</svg>
