<svg xmlns="http://www.w3.org/2000/svg" viewBox="30 26 25 22">
  <defs>
    <style>
      .cls-1 {
        fill: #555;
      }
    </style>
  </defs>
  <g id="gruppieren-74" transform="translate(30.001 26.001)">
    <path id="pfad" class="cls-1" d="M312,414.99a1.078,1.078,0,0,0-.288-.8.961.961,0,0,0-.753-.3H288.042a.961.961,0,0,0-.753.3,1.078,1.078,0,0,0-.288.8v2.2a1.078,1.078,0,0,0,.288.8.961.961,0,0,0,.753.3h22.914a.961.961,0,0,0,.753-.3,1.078,1.078,0,0,0,.288-.8Zm0,0" transform="translate(-287 -413.89)"/>
    <path id="pfad-2" data-name="pfad" class="cls-1" d="M312,421.39a1.078,1.078,0,0,0-.288-.8.961.961,0,0,0-.753-.3H288.042a.961.961,0,0,0-.753.3,1.078,1.078,0,0,0-.288.8v2.2a1.078,1.078,0,0,0,.288.8.961.961,0,0,0,.753.3h22.914a.96.96,0,0,0,.753-.3,1.078,1.078,0,0,0,.288-.8Zm0,0" transform="translate(-287 -411.491)"/>
    <path id="pfad-3" data-name="pfad" class="cls-1" d="M312,427.79a1.078,1.078,0,0,0-.288-.8.961.961,0,0,0-.753-.3H288.042a.962.962,0,0,0-.753.3,1.078,1.078,0,0,0-.288.8v2.2a1.078,1.078,0,0,0,.288.8.961.961,0,0,0,.753.3h22.914a.961.961,0,0,0,.753-.3,1.077,1.077,0,0,0,.288-.8Zm0,0" transform="translate(-287 -409.092)"/>
  </g>
</svg>
