<svg xmlns="http://www.w3.org/2000/svg" viewBox="103 1059 22 19">
  <defs>
    <style>
      .cls-1 {
        fill: #555;
      }
    </style>
  </defs>
  <path id="pfad-13" class="cls-1" d="M239.232,375.2a.729.729,0,0,0,0,1.07l6.287,6.082a.805.805,0,0,0,.853.164.761.761,0,0,0,.486-.7v-3.042h2.751q1.2,0,2.155.071a16.016,16.016,0,0,1,1.884.255,7.2,7.2,0,0,1,1.633.5,5.8,5.8,0,0,1,1.294.826,4.153,4.153,0,0,1,.983,1.2,6.294,6.294,0,0,1,.6,1.64,9.764,9.764,0,0,1,.217,2.151q0,.653-.062,1.458a2.339,2.339,0,0,1-.032.279,2.346,2.346,0,0,0-.03.315.434.434,0,0,0,.1.3.362.362,0,0,0,.288.118.422.422,0,0,0,.345-.2,1.332,1.332,0,0,0,.16-.261q.073-.153.166-.365c.06-.135.1-.23.128-.284a13.907,13.907,0,0,0,1.56-5.359,10.477,10.477,0,0,0-.65-3.955q-1.989-4.788-10.739-4.788h-2.751v-3.026a.756.756,0,0,0-.484-.7.8.8,0,0,0-.856.169Zm0,0" transform="translate(-135.999 690.111)"/>
</svg>
