<svg xmlns="http://www.w3.org/2000/svg" viewBox="193 991 22 19">
  <defs>
    <style>
      .cls-1 {
        fill: #555;
      }
    </style>
  </defs>
  <path id="pfad-11" class="cls-1" d="M260.8,375.217l-6.287-6.079a.805.805,0,0,0-.853-.164.76.76,0,0,0-.486.7v3.04h-2.751q-8.755,0-10.739,4.785a10.493,10.493,0,0,0-.65,3.953,13.891,13.891,0,0,0,1.56,5.355c.025.056.068.149.128.284s.117.253.166.364a1.33,1.33,0,0,0,.16.261.422.422,0,0,0,.345.2.362.362,0,0,0,.288-.118.434.434,0,0,0,.1-.3,2.363,2.363,0,0,0-.03-.315,2.346,2.346,0,0,1-.032-.279q-.062-.807-.062-1.457a9.75,9.75,0,0,1,.217-2.149,6.288,6.288,0,0,1,.6-1.64,4.151,4.151,0,0,1,.983-1.2,5.8,5.8,0,0,1,1.294-.825,7.205,7.205,0,0,1,1.633-.5,16.053,16.053,0,0,1,1.884-.255q.951-.071,2.155-.071h2.751v3.04a.756.756,0,0,0,.484.7.8.8,0,0,0,.856-.169L260.8,376.3a.728.728,0,0,0,0-1.069Zm0,0" transform="translate(-46.03 622.083)"/>
</svg>
