<svg xmlns="http://www.w3.org/2000/svg" viewBox="1532 24 32.241 26">
  <defs>
    <style>
      .cls-1 {
        fill: #555;
      }
    </style>
  </defs>
  <g id="gruppieren-69" transform="translate(1532.005 23.98)">
    <path id="pfad" class="cls-1" d="M36.919,14.1a2.018,2.018,0,0,0-1.708-.808H12.132l-.637-2.816h0A3.3,3.3,0,0,0,8.4,8H5.894a.9.9,0,0,0,0,1.8H8.4a1.526,1.526,0,0,1,1.362,1.089h0L12.9,24.97a2.89,2.89,0,0,0,2.729,2.188H30.99A2.878,2.878,0,0,0,33.531,25.4l3.54-9.417A2.014,2.014,0,0,0,36.919,14.1Z" transform="translate(-5 -7.98)"/>
    <path id="ellipse" class="cls-1" d="M2.432,0A2.432,2.432,0,1,1,0,2.432,2.432,2.432,0,0,1,2.432,0Z" transform="translate(9.002 21.155)"/>
    <path id="pfad-2" data-name="pfad" class="cls-1" d="M74.762,76.29a2.432,2.432,0,1,0,2.432,2.432,2.432,2.432,0,0,0-2.432-2.432Z" transform="translate(-51.498 -55.138)"/>
  </g>
</svg>
