<svg xmlns="http://www.w3.org/2000/svg" xmlns:xlink="http://www.w3.org/1999/xlink" viewBox="-534 1106 19 19">
  <defs>
    <style>
      .cls-1 {
        fill: none;
      }

      .cls-2 {
        clip-path: url(#clip-path);
      }

      .cls-3 {
        fill: #555;
      }
    </style>
    <clipPath id="clip-path">
      <rect id="rechteck" class="cls-1" width="19" height="19"/>
    </clipPath>
  </defs>
  <g id="gruppieren-66" class="cls-2" transform="translate(-534 1106)">
    <path id="pfad" class="cls-3" d="M282.632,397.89a9.342,9.342,0,0,0-8.107,13.981l-1.552,4.6a.317.317,0,0,0,.3.42.3.3,0,0,0,.079,0l5.023-1.322a9.342,9.342,0,1,0,4.235-17.666Zm5.831,13.585-.558.558a3.25,3.25,0,0,1-2.331,1.057,5.412,5.412,0,0,1-3.642-1.928l-3.226-3.23a6.321,6.321,0,0,1-1.845-2.913,3.135,3.135,0,0,1,.974-3.06l.558-.558a1.187,1.187,0,0,1,1.385-.21,6.516,6.516,0,0,1,1.813,2.074,1.187,1.187,0,0,1,.154.895.827.827,0,0,1-.376.491c-.253.214-.554.483-.61.546a.855.855,0,0,0,.131,1.255l2.521,2.521a.855.855,0,0,0,1.259.127c.063-.051.329-.352.542-.606a.827.827,0,0,1,.74-.4,1.314,1.314,0,0,1,.645.182,6.579,6.579,0,0,1,2.074,1.813,1.187,1.187,0,0,1-.21,1.385Zm0,0" transform="translate(-272.974 -397.89)"/>
  </g>
</svg>
